<svg width="186" height="158" viewBox="0 0 186 158" fill="none" xmlns="http://www.w3.org/2000/svg">
<path d="M54.6619 156.351C57.6478 153.847 59.4615 149.892 58.9858 146.042C58.5102 142.192 55.5643 138.652 51.743 137.835C47.9217 137.017 43.5657 139.28 42.405 142.984C41.7663 135.843 41.0302 128.402 37.2039 122.32C33.7394 116.814 27.7386 112.873 21.2352 112.168C14.7318 111.463 7.8845 114.126 3.82855 119.22C-0.227398 124.313 -1.22048 131.718 1.6202 137.566C3.71283 141.874 7.5682 145.08 11.6077 147.689C24.6606 156.046 40.3159 159.445 55.6931 157.259" fill="#F2F2F2"/>
<path d="M10.2597 114.274C15.6259 118.611 20.5487 123.462 24.9571 128.756C31.8562 137.013 37.439 146.271 41.5111 156.207C41.8092 156.932 40.6231 157.248 40.3283 156.531C37.7388 150.249 34.535 144.234 30.763 138.572C24.881 129.727 17.6746 121.824 9.39236 115.134C8.78 114.64 9.65241 113.783 10.2597 114.274Z" fill="white"/>
<path d="M56.7243 156.351C53.7384 153.847 51.9247 149.892 52.4004 146.042C52.876 142.192 55.8219 138.652 59.6432 137.835C63.4645 137.017 67.8205 139.28 68.9812 142.984C69.62 135.843 70.356 128.402 74.1823 122.32C77.6468 116.814 83.6476 112.873 90.151 112.168C96.6544 111.463 103.502 114.126 107.558 119.22C111.614 124.313 112.607 131.718 109.766 137.566C107.673 141.874 103.818 145.08 99.7785 147.689C86.7256 156.046 71.0703 159.445 55.6931 157.259" fill="#F2F2F2"/>
<path d="M101.127 114.274C95.7605 118.611 90.8377 123.462 86.4293 128.756C79.5302 137.013 73.9474 146.271 69.8753 156.207C69.5772 156.932 70.7633 157.248 71.0581 156.531C77.7207 140.383 88.3569 126.15 101.994 115.134C102.606 114.64 101.734 113.783 101.127 114.274Z" fill="white"/>
<path d="M65.5848 71.0756C71.1086 71.0756 75.5865 66.632 75.5865 61.1506C75.5865 55.6692 71.1086 51.2256 65.5848 51.2256C60.061 51.2256 55.583 55.6692 55.583 61.1506C55.583 66.632 60.061 71.0756 65.5848 71.0756Z" fill="#F2F2F2"/>
<path d="M34.7465 26.9375H103.656V30.6787H43.5434C40.009 30.6787 36.5092 31.3695 33.2439 32.7116C29.9785 34.0538 27.0115 36.0211 24.5123 38.5011C22.0131 40.9811 20.0307 43.9253 18.6781 47.1656C17.3256 50.4059 16.6294 53.8788 16.6294 57.3861V99.8903H9.08922C8.75592 99.8903 8.43628 99.7589 8.20061 99.525C7.96493 99.2911 7.83253 98.9739 7.83252 98.6432V53.6449C7.83252 50.1376 8.52867 46.6647 9.88122 43.4244C11.2338 40.1841 13.2162 37.2399 15.7154 34.7599C18.2146 32.2799 21.1816 30.3126 24.447 28.9705C27.7123 27.6283 31.2121 26.9375 34.7465 26.9375Z" fill="#F2F2F2"/>
<path d="M48.001 156.559V99.7305H64.7781V156.559C64.7777 156.941 64.6246 157.307 64.3524 157.577C64.0802 157.848 63.7112 157.999 63.3263 158H49.4528C49.0679 157.999 48.6989 157.848 48.4267 157.577C48.1545 157.307 48.0014 156.941 48.001 156.559Z" fill="#3F3D56"/>
<path d="M4.28345 98.6097V52.3993C4.29182 45.0429 7.24044 37.9902 12.4824 32.7884C17.7244 27.5867 24.8316 24.6607 32.2449 24.6523H103.333V100.21H5.89664C5.46894 100.21 5.05891 100.041 4.75648 99.7411C4.45406 99.441 4.28394 99.0341 4.28345 98.6097ZM102.688 25.2927H32.2449C25.0027 25.3008 18.0595 28.1593 12.9385 33.241C7.81749 38.3227 4.93691 45.2127 4.92872 52.3993V98.6097C4.929 98.8643 5.03107 99.1085 5.21253 99.2885C5.39399 99.4686 5.64002 99.5699 5.89664 99.5701H102.688V25.2927Z" fill="#3F3D56"/>
<path d="M65.5848 66.2734C64.0451 66.2717 62.5689 65.664 61.4802 64.5836C60.3915 63.5032 59.7791 62.0384 59.7773 60.5105V19.2097C59.777 18.955 59.675 18.7109 59.4935 18.5308C59.3121 18.3508 59.066 18.2495 58.8094 18.2492H36.2248C35.7971 18.2487 35.387 18.0799 35.0846 17.7798C34.7822 17.4797 34.6121 17.0728 34.6116 16.6484V1.60081C34.6121 1.1764 34.7822 0.76951 35.0846 0.469407C35.387 0.169304 35.7971 0.000491461 36.2248 0H69.7791C70.2068 0.000485542 70.6168 0.169297 70.9192 0.469402C71.2217 0.769506 71.3918 1.1764 71.3923 1.60081V60.5105C71.3905 62.0384 70.7781 63.5032 69.6894 64.5836C68.6007 65.664 67.1245 66.2717 65.5848 66.2734Z" fill="#79AA00"/>
<path d="M105.914 24.0118C110.781 24.0016 115.453 25.9106 118.902 29.3186C122.351 32.7267 124.294 37.3547 124.305 42.1846V94.7902H160.44C161.892 94.7872 163.285 95.3566 164.314 96.373C165.342 97.3894 165.922 98.7697 165.925 100.21H87.5239V42.1846C87.5341 37.3547 89.4774 32.7267 92.9263 29.3186C96.3751 25.9106 101.047 24.0016 105.914 24.0118Z" fill="#3F3D56"/>
<path d="M101.501 53.9689L105.309 69.5788L179.8 51.6844L175.992 36.0746C175.946 35.8837 175.852 35.7075 175.719 35.5623C175.586 35.417 175.419 35.3075 175.232 35.2438C175.093 35.1956 174.947 35.1738 174.801 35.1795L131.742 13.0557C131.49 12.9278 131.2 12.8937 130.924 12.9594C130.649 13.0251 130.406 13.1864 130.24 13.414L109.488 42.1305L101.665 52.9593C101.65 52.9783 101.64 53.0001 101.635 53.0232C101.631 53.0463 101.631 53.0702 101.636 53.0932C101.477 53.3562 101.428 53.6708 101.501 53.9689Z" fill="white"/>
<path d="M101.636 53.0932C101.64 53.1135 101.647 53.1329 101.659 53.1503C101.67 53.1676 101.685 53.1826 101.702 53.1943C101.722 53.2081 101.745 53.2176 101.769 53.2223C101.793 53.227 101.817 53.2268 101.841 53.2217C101.88 53.2114 101.914 53.188 101.938 53.1554L101.965 53.1184L102.372 52.5532L109.77 42.3194L130.516 13.6095C130.634 13.4468 130.807 13.3316 131.004 13.2849C131.201 13.2381 131.408 13.2628 131.587 13.3546L174.313 35.307L174.696 35.5045C174.712 35.5109 174.728 35.5165 174.744 35.521C174.773 35.5158 174.802 35.513 174.831 35.5127C174.871 35.4994 174.905 35.4713 174.925 35.4343C174.935 35.4148 174.942 35.3935 174.944 35.3715C174.946 35.3496 174.944 35.3274 174.937 35.3064C174.93 35.2853 174.92 35.2657 174.906 35.2487C174.891 35.2317 174.874 35.2177 174.854 35.2074L174.801 35.1795L131.742 13.0557C131.49 12.9278 131.2 12.8937 130.925 12.9594C130.649 13.0251 130.406 13.1864 130.24 13.414L109.488 42.1305L101.665 52.9593C101.651 52.9783 101.641 53 101.636 53.0232C101.631 53.0463 101.631 53.0702 101.636 53.0932Z" fill="#3F3D56"/>
<path d="M124.008 54.6847L125.666 54.8672L137.973 56.22L146.131 57.1162L146.613 57.1694L156.793 49.2791L157.183 48.9768L159.587 47.1134L168.141 40.4841L168.193 40.0184L171.235 12.7682C171.277 12.3929 171.167 12.0167 170.929 11.7219C170.691 11.4271 170.346 11.2379 169.968 11.1957L129.362 6.73207C128.984 6.69109 128.605 6.80047 128.308 7.03625C128.011 7.27203 127.82 7.615 127.777 7.99005L125.631 27.2118L124.441 37.8686L123.376 47.4025L122.883 51.8301L122.739 53.1126C122.698 53.488 122.808 53.8642 123.046 54.1589C123.284 54.4535 123.63 54.6426 124.008 54.6847Z" fill="#E6E6E6"/>
<path d="M135.166 30.7988L152.755 32.732L158.993 33.4174C159.269 33.4476 159.547 33.4238 159.813 33.3472C160.08 33.2705 160.328 33.1427 160.544 32.9708C160.76 32.799 160.941 32.5865 161.074 32.3456C161.208 32.1047 161.292 31.8401 161.323 31.5668C161.353 31.2935 161.329 31.017 161.252 30.7529C161.175 30.4888 161.046 30.2424 160.873 30.0278C160.699 29.8132 160.485 29.6345 160.243 29.5019C160 29.3694 159.733 29.2856 159.458 29.2553L151.699 28.4026L135.632 26.6347C135.076 26.5738 134.518 26.7345 134.081 27.0816C133.644 27.4287 133.364 27.9338 133.302 28.4858C133.24 29.0378 133.402 29.5916 133.752 30.0253C134.101 30.459 134.61 30.7373 135.166 30.7988Z" fill="white"/>
<path d="M134.165 38.5201C134.21 38.5282 134.256 38.5362 134.302 38.5406L154.72 40.7853L158.129 41.1608C158.686 41.2218 159.244 41.0611 159.681 40.7138C160.118 40.3666 160.398 39.8613 160.459 39.3092C160.521 38.7571 160.359 38.2033 160.009 37.7697C159.659 37.336 159.15 37.0581 158.593 36.9971L153.664 36.4559L137.49 34.6774L134.768 34.3781C134.224 34.3179 133.677 34.4701 133.244 34.8025C132.811 35.1349 132.525 35.6215 132.446 36.1594C132.368 36.6973 132.503 37.2444 132.824 37.6849C133.145 38.1255 133.626 38.425 134.165 38.5201Z" fill="white"/>
<path d="M131.854 45.3662C132.021 45.6419 132.25 45.8755 132.524 46.0491C132.797 46.2226 133.106 46.3314 133.429 46.3668L141.797 47.2866L156.702 48.9252L156.706 48.9244L157.182 48.9771L159.587 47.1137C159.602 46.9721 159.602 46.8294 159.587 46.6879C159.536 46.2126 159.324 45.7686 158.984 45.4296C158.645 45.0905 158.199 44.8766 157.72 44.8233L155.65 44.595L147.436 43.6931L141.526 43.0427L133.893 42.2031C133.501 42.1602 133.106 42.2266 132.751 42.395C132.396 42.5634 132.095 42.8271 131.883 43.1561C131.671 43.4852 131.556 43.8665 131.551 44.257C131.546 44.6476 131.651 45.0318 131.854 45.3662Z" fill="white"/>
<path d="M143.609 21.3608L147.985 21.8418L149.918 22.0549L152.838 22.3755C153.395 22.4366 153.953 22.2758 154.39 21.9286C154.827 21.5814 155.107 21.0761 155.168 20.524C155.23 19.9718 155.068 19.418 154.718 18.9844C154.368 18.5508 153.859 18.2729 153.302 18.2118L144.075 17.1984C143.519 17.137 142.961 17.2974 142.524 17.6444C142.087 17.9913 141.806 18.4963 141.745 19.0483C141.683 19.6003 141.844 20.154 142.194 20.5877C142.544 21.0214 143.053 21.2995 143.609 21.3608Z" fill="white"/>
<path d="M107.824 32.9543L113.159 54.8258L122.064 56.5061L130.302 58.0623L139.14 59.7311L141.964 60.2644C142.129 60.2954 142.3 60.2912 142.463 60.2519C142.627 60.2126 142.78 60.1392 142.913 60.0366L145.178 58.2807L146.613 57.1691L156.793 49.2788L150.32 22.7458C150.256 22.4818 150.116 22.2418 149.918 22.0546C149.745 21.8889 149.532 21.7693 149.299 21.7068C149.066 21.6442 148.822 21.6408 148.587 21.6969L108.881 31.2353C108.511 31.3244 108.192 31.5555 107.994 31.8778C107.795 32.2001 107.734 32.5873 107.824 32.9543Z" fill="#79AA00"/>
<path d="M120.058 50.3543C120.19 50.8938 120.532 51.3592 121.01 51.6484C121.488 51.9377 122.061 52.027 122.605 51.8968L145.904 46.2999C146.448 46.1685 146.917 45.8286 147.208 45.3547C147.5 44.8809 147.59 44.3117 147.459 43.7719C147.453 43.7452 147.445 43.7188 147.436 43.6929C147.287 43.1726 146.941 42.7296 146.471 42.4567C146 42.1839 145.441 42.1024 144.911 42.2294L121.612 47.8263C121.069 47.9574 120.6 48.2973 120.308 48.7712C120.017 49.2452 119.927 49.8145 120.058 50.3543Z" fill="white"/>
<path d="M122.064 56.506L130.302 58.0623L147.752 53.8705C148.295 53.7398 148.765 53.4001 149.056 52.926C149.348 52.4519 149.438 51.8823 149.306 51.3425C149.174 50.8028 148.832 50.337 148.354 50.0477C147.876 49.7584 147.302 49.6693 146.759 49.8L123.459 55.3969C122.973 55.513 122.544 55.7982 122.25 56.201C122.18 56.2973 122.117 56.3993 122.064 56.506Z" fill="white"/>
<path d="M139.14 59.7317L141.964 60.265C142.13 60.296 142.3 60.2917 142.463 60.2524C142.627 60.2132 142.78 60.1398 142.913 60.0372L145.178 58.2812L139.14 59.7317Z" fill="white"/>
<path d="M124.752 38.6262C124.884 39.1657 125.227 39.6312 125.704 39.9204C126.182 40.2096 126.756 40.2989 127.3 40.1687L136.324 38.0009C136.868 37.8696 137.336 37.5297 137.628 37.0558C137.919 36.5819 138.009 36.0127 137.879 35.473C137.808 35.183 137.676 34.9114 137.49 34.677C137.24 34.3601 136.904 34.1212 136.521 33.9888C136.138 33.8564 135.725 33.8362 135.331 33.9305L126.307 36.0983C125.763 36.229 125.294 36.5688 125.002 37.0428C124.711 37.5169 124.621 38.0864 124.752 38.6262Z" fill="white"/>
<path d="M130.301 58.0629L139.141 59.7321L141.964 60.2656C142.129 60.2963 142.299 60.2918 142.462 60.2526C142.626 60.2133 142.779 60.1402 142.912 60.0379L145.179 58.2816L144.383 58.4727L142.704 59.7729C142.609 59.8459 142.499 59.8981 142.383 59.9262C142.266 59.9542 142.145 59.9574 142.027 59.9355L139.936 59.541L131.096 57.8718L130.301 58.0629ZM156.705 48.9258L156.791 49.2786L157.183 48.9761L156.705 48.9258ZM130.301 58.0629L139.141 59.7321L141.964 60.2656C142.129 60.2963 142.299 60.2918 142.462 60.2526C142.626 60.2133 142.779 60.1402 142.912 60.0379L145.179 58.2816L144.383 58.4727L142.704 59.7729C142.609 59.8459 142.499 59.8981 142.383 59.9262C142.266 59.9542 142.145 59.9574 142.027 59.9355L139.936 59.541L131.096 57.8718L130.301 58.0629ZM130.301 58.0629L139.141 59.7321L141.964 60.2656C142.129 60.2963 142.299 60.2918 142.462 60.2526C142.626 60.2133 142.779 60.1402 142.912 60.0379L145.179 58.2816L144.383 58.4727L142.704 59.7729C142.609 59.8459 142.499 59.8981 142.383 59.9262C142.266 59.9542 142.145 59.9574 142.027 59.9355L139.936 59.541L131.096 57.8718L130.301 58.0629ZM101.501 53.9691L111.476 94.857C111.55 95.1591 111.742 95.4198 112.009 95.5817C112.277 95.7437 112.598 95.7937 112.903 95.7209L185.096 78.3784C185.401 78.305 185.663 78.1146 185.827 77.8492C185.99 77.5838 186.04 77.2649 185.967 76.9626L175.992 36.0747C175.946 35.8839 175.852 35.7076 175.719 35.5624C175.586 35.4171 175.419 35.3076 175.232 35.2439C175.093 35.1957 174.947 35.1739 174.801 35.1796C174.631 35.1845 174.463 35.2281 174.313 35.3071C174.243 35.3399 174.177 35.3804 174.117 35.4279L168.192 40.0189L159.587 46.689L156.704 48.9234L156.705 48.9258L156.702 48.9264L146.131 57.1155L144.383 58.4727L142.704 59.7729C142.609 59.8459 142.499 59.8981 142.383 59.9262C142.266 59.9542 142.145 59.9574 142.027 59.9355L139.936 59.541L131.096 57.8718L122.249 56.2019L102.871 52.5426C102.706 52.5101 102.535 52.5137 102.372 52.5533C102.151 52.6067 101.951 52.7218 101.795 52.8849C101.735 52.949 101.682 53.0188 101.636 53.0933C101.477 53.3563 101.428 53.671 101.501 53.9691ZM130.301 58.0629L139.141 59.7321L141.964 60.2656C142.129 60.2963 142.299 60.2918 142.462 60.2526C142.626 60.2133 142.779 60.1402 142.912 60.0379L145.179 58.2816L144.383 58.4727L142.704 59.7729C142.609 59.8459 142.499 59.8981 142.383 59.9262C142.266 59.9542 142.145 59.9574 142.027 59.9355L139.936 59.541L131.096 57.8718L130.301 58.0629ZM130.301 58.0629L139.141 59.7321L141.964 60.2656C142.129 60.2963 142.299 60.2918 142.462 60.2526C142.626 60.2133 142.779 60.1402 142.912 60.0379L145.179 58.2816L144.383 58.4727L142.704 59.7729C142.609 59.8459 142.499 59.8981 142.383 59.9262C142.266 59.9542 142.145 59.9574 142.027 59.9355L139.936 59.541L131.096 57.8718L130.301 58.0629ZM130.301 58.0629L139.141 59.7321L141.964 60.2656C142.129 60.2963 142.299 60.2918 142.462 60.2526C142.626 60.2133 142.779 60.1402 142.912 60.0379L145.179 58.2816L144.383 58.4727L142.704 59.7729C142.609 59.8459 142.499 59.8981 142.383 59.9262C142.266 59.9542 142.145 59.9574 142.027 59.9355L139.936 59.541L131.096 57.8718L130.301 58.0629Z" fill="white"/>
<path d="M130.301 58.0629L139.141 59.7321L141.964 60.2656C142.129 60.2963 142.299 60.2918 142.462 60.2526C142.626 60.2133 142.779 60.1401 142.912 60.0379L145.179 58.2816L144.383 58.4727L142.704 59.7729C142.609 59.8459 142.499 59.8981 142.383 59.9262C142.266 59.9542 142.145 59.9574 142.027 59.9355L139.936 59.541L131.096 57.8718L130.301 58.0629ZM156.705 48.9258L156.791 49.2786L157.183 48.9761L156.705 48.9258ZM130.301 58.0629L139.141 59.7321L141.964 60.2656C142.129 60.2963 142.299 60.2918 142.462 60.2526C142.626 60.2133 142.779 60.1401 142.912 60.0379L145.179 58.2816L144.383 58.4727L142.704 59.7729C142.609 59.8459 142.499 59.8981 142.383 59.9262C142.266 59.9542 142.145 59.9574 142.027 59.9355L139.936 59.541L131.096 57.8718L130.301 58.0629ZM130.301 58.0629L139.141 59.7321L141.964 60.2656C142.129 60.2963 142.299 60.2918 142.462 60.2526C142.626 60.2133 142.779 60.1401 142.912 60.0379L145.179 58.2816L144.383 58.4727L142.704 59.7729C142.609 59.8459 142.499 59.8981 142.383 59.9262C142.266 59.9542 142.145 59.9574 142.027 59.9355L139.936 59.541L131.096 57.8718L130.301 58.0629ZM101.964 53.1186L102.008 53.1512C102.016 53.1393 102.028 53.1286 102.038 53.1161C102.136 53.0151 102.257 52.9398 102.392 52.8969C102.526 52.854 102.669 52.8449 102.808 52.8703L122.064 56.5054L130.301 58.0629L139.141 59.7321L141.964 60.2656C142.129 60.2963 142.299 60.2918 142.462 60.2526C142.626 60.2133 142.779 60.1401 142.912 60.0379L145.179 58.2816L144.383 58.4727L142.704 59.7729C142.609 59.8459 142.499 59.8981 142.383 59.9262C142.266 59.9542 142.145 59.9574 142.027 59.9355L139.936 59.541L131.096 57.8718L122.249 56.2019L102.871 52.5426C102.706 52.5101 102.535 52.5137 102.372 52.5533L101.964 53.1186ZM101.501 53.9691L111.476 94.857C111.55 95.1591 111.742 95.4198 112.009 95.5817C112.277 95.7437 112.598 95.7937 112.903 95.7209L185.096 78.3784C185.401 78.305 185.663 78.1146 185.827 77.8492C185.99 77.5838 186.04 77.2649 185.967 76.9626L175.992 36.0747C175.946 35.8839 175.852 35.7076 175.719 35.5624C175.586 35.4171 175.419 35.3076 175.232 35.2439C175.093 35.1957 174.947 35.1739 174.801 35.1796C174.631 35.1845 174.463 35.2281 174.313 35.3071C174.243 35.3399 174.177 35.3804 174.117 35.4279L168.192 40.0189L159.587 46.689L156.704 48.9234L156.705 48.9258L156.702 48.9264L146.131 57.1155L144.383 58.4727L142.704 59.7729C142.609 59.8459 142.499 59.8981 142.383 59.9262C142.266 59.9542 142.145 59.9574 142.027 59.9355L139.936 59.541L131.096 57.8718L122.249 56.2019L102.871 52.5426C102.706 52.5101 102.535 52.5137 102.372 52.5533C102.151 52.6067 101.951 52.7218 101.795 52.8849C101.735 52.949 101.682 53.0188 101.636 53.0933C101.477 53.3563 101.428 53.6709 101.501 53.9691ZM101.83 53.89C101.801 53.7695 101.799 53.644 101.825 53.5226C101.85 53.4013 101.903 53.2872 101.979 53.1887C101.986 53.1742 101.996 53.1614 102.008 53.1512C102.016 53.1393 102.028 53.1286 102.038 53.1161C102.136 53.0151 102.257 52.9398 102.392 52.8969C102.526 52.854 102.669 52.8449 102.808 52.8703L122.064 56.5054L130.301 58.0629L139.141 59.7321L141.964 60.2656C142.129 60.2963 142.299 60.2918 142.462 60.2526C142.626 60.2133 142.779 60.1401 142.912 60.0379L145.179 58.2816L146.613 57.17L156.791 49.2786L157.183 48.9761L159.585 47.1135L168.141 40.4832L174.327 35.6899C174.421 35.6171 174.529 35.565 174.645 35.5371C174.677 35.5293 174.71 35.5239 174.744 35.5211C174.772 35.5159 174.802 35.5131 174.831 35.5128C174.93 35.5119 175.028 35.5278 175.122 35.5598C175.255 35.6059 175.375 35.6843 175.47 35.7879C175.565 35.8916 175.632 36.0171 175.666 36.1532L185.64 77.0411C185.667 77.1482 185.671 77.2594 185.654 77.3684C185.637 77.4773 185.598 77.5818 185.541 77.676C185.483 77.7701 185.407 77.852 185.317 77.9169C185.227 77.9819 185.125 78.0286 185.017 78.0544L112.824 95.3969C112.606 95.4489 112.376 95.4128 112.185 95.2968C111.994 95.1807 111.857 94.9941 111.805 94.7779L101.83 53.89ZM130.301 58.0629L139.141 59.7321L141.964 60.2656C142.129 60.2963 142.299 60.2918 142.462 60.2526C142.626 60.2133 142.779 60.1401 142.912 60.0379L145.179 58.2816L144.383 58.4727L142.704 59.7729C142.609 59.8459 142.499 59.8981 142.383 59.9262C142.266 59.9542 142.145 59.9574 142.027 59.9355L139.936 59.541L131.096 57.8718L130.301 58.0629ZM130.301 58.0629L139.141 59.7321L141.964 60.2656C142.129 60.2963 142.299 60.2918 142.462 60.2526C142.626 60.2133 142.779 60.1401 142.912 60.0379L145.179 58.2816L144.383 58.4727L142.704 59.7729C142.609 59.8459 142.499 59.8981 142.383 59.9262C142.266 59.9542 142.145 59.9574 142.027 59.9355L139.936 59.541L131.096 57.8718L130.301 58.0629ZM130.301 58.0629L139.141 59.7321L141.964 60.2656C142.129 60.2963 142.299 60.2918 142.462 60.2526C142.626 60.2133 142.779 60.1401 142.912 60.0379L145.179 58.2816L144.383 58.4727L142.704 59.7729C142.609 59.8459 142.499 59.8981 142.383 59.9262C142.266 59.9542 142.145 59.9574 142.027 59.9355L139.936 59.541L131.096 57.8718L130.301 58.0629Z" fill="#3F3D56"/>
<path d="M166.281 70.345C166.118 69.675 166.23 68.9683 166.592 68.38C166.953 67.7917 167.536 67.3699 168.21 67.207L177.322 65.0181C177.996 64.8586 178.707 64.9708 179.298 65.3301C179.889 65.6894 180.312 66.2666 180.475 66.9351C180.639 67.6036 180.528 68.309 180.168 68.8968C179.808 69.4845 179.228 69.9067 178.555 70.0709L169.443 72.2598C168.768 72.4212 168.056 72.3102 167.463 71.9512C166.87 71.5923 166.445 71.0146 166.281 70.345Z" fill="#79AA00"/>
<path d="M65.5846 62.7518C66.832 62.7518 67.8431 61.7484 67.8431 60.5107C67.8431 59.2729 66.832 58.2695 65.5846 58.2695C64.3373 58.2695 63.3262 59.2729 63.3262 60.5107C63.3262 61.7484 64.3373 62.7518 65.5846 62.7518Z" fill="white"/>
</svg>
