<svg width="105" height="46" viewBox="0 0 105 46" fill="none" xmlns="http://www.w3.org/2000/svg">
<path d="M10.0964 33.4489L1.26246 42.2829C0.467699 41.1807 0 39.8234 0 38.3647V23.3525L10.0964 33.4489Z" fill="#526D00"/>
<path d="M12.291 35.6436L21.7497 45.1022H6.7375C5.60587 45.1022 4.53965 44.8242 3.60425 44.3303L12.291 35.6436Z" fill="#9FC134"/>
<path d="M9.37033 12.0361L25.4029 28.0687L17.2558 36.2158L0 18.9666V12.0361H9.37033Z" fill="#9FC134"/>
<path d="M34.1257 12.0361V19.346L27.5975 25.8741L13.7595 12.0361H34.1257Z" fill="#79AA00"/>
<path d="M29.7922 28.0693L34.1258 23.7324V32.4028L29.7922 28.0693Z" fill="#526D00"/>
<path d="M27.5974 30.2637L34.1256 36.7918V38.3683C34.1256 42.087 31.1101 45.1025 27.3881 45.1025H26.1354L19.447 38.4141L27.5974 30.2637Z" fill="#79AA00"/>
<path d="M16.7849 0.134766C11.2837 0.134766 6.80949 4.53375 6.68848 10.0055H9.7923C9.91331 6.2541 13.004 3.23859 16.7816 3.23859C20.5592 3.23859 23.6532 6.2541 23.7709 10.0055H26.8748C26.7537 4.53375 22.2795 0.134766 16.7783 0.134766H16.7849Z" fill="#526D00"/>
<path d="M40.6636 23.3428V12.0166H45.442C46.4002 12.0166 47.2604 12.3731 48.0584 13.073C48.8532 13.7729 49.262 14.6985 49.262 15.853C49.262 17.0076 48.8728 17.8677 48.0912 18.6004C47.3095 19.333 46.433 19.6895 45.442 19.6895H43.1656V23.346H40.6636V23.3428ZM43.1656 17.4131H45.2948C45.6349 17.4131 45.9783 17.2987 46.2858 17.0566C46.5932 16.8113 46.7567 16.4058 46.7567 15.853C46.7567 15.3003 46.5932 14.9111 46.2858 14.6658C45.9783 14.4205 45.6349 14.293 45.2948 14.293H43.1656V17.4131Z" fill="#1E252B"/>
<path d="M51.6465 23.3428V12.0166H54.1485V21.0664H58.5671V23.3428H51.6465Z" fill="#1E252B"/>
<path d="M59.9473 23.3428L64.6275 12.0166H66.8548L71.5351 23.3428H68.8695L68.1075 21.4425H63.3781L62.6161 23.3428H59.9505H59.9473ZM64.0911 19.4442H67.3912L65.7493 15.333L64.0911 19.4442Z" fill="#1E252B"/>
<path d="M73.6936 23.3428V12.0166H75.9209L81.3469 19.0517V12.0166H83.7671V23.3428H81.7197L76.1139 16.1114V23.3428H73.6936Z" fill="#1E252B"/>
<path d="M86.7859 23.3428V12.0166H94.5209V14.293H89.2879V16.4221H94.1775V18.6494H89.2879V21.0697H94.6354V23.346H86.7859V23.3428Z" fill="#1E252B"/>
<path d="M99.4759 23.3428V14.293H96.4048V12.0166H105V14.293H101.978V23.3428H99.4759Z" fill="#1E252B"/>
<path d="M40.6636 42.8389V31.5127H45.4092C46.4657 31.5127 47.3749 31.8692 48.1239 32.6018C48.8859 33.3181 49.262 34.1946 49.262 35.251C49.262 36.6966 48.4673 37.9493 47.2473 38.4693L50.011 42.8389H47.1852L44.8303 39.0678H43.1558V42.8389H40.6701H40.6636ZM43.1492 36.8602H45.1312C46.1059 36.8602 46.7567 36.242 46.7567 35.2837C46.7567 34.4235 46.1386 33.789 45.3438 33.789H43.1492V36.8602Z" fill="#1E252B"/>
<path d="M52.1338 42.8389V31.5127H59.8688V33.789H54.6358V35.9182H59.5254V38.1455H54.6358V40.5658H59.9833V42.8421H52.1338V42.8389Z" fill="#1E252B"/>
<path d="M61.8474 39.4111V37.2002H67.6658V39.4111H61.8474Z" fill="#1E252B"/>
<path d="M70.217 42.8389V31.5127H74.7174C75.6266 31.5127 76.392 31.7874 77.0101 32.3402C77.6446 32.8765 77.9521 33.5765 77.9521 34.4039C77.9521 35.493 77.4157 36.3532 76.5064 36.6803C77.9521 36.9387 78.7828 38.0441 78.7828 39.493C78.7828 40.4513 78.459 41.2657 77.7918 41.8969C77.1409 42.5314 76.3298 42.8389 75.3388 42.8389H70.2203H70.217ZM72.67 36.0294H74.3119C75.0281 36.0294 75.5318 35.5257 75.5318 34.8258C75.5318 34.1259 75.0281 33.655 74.3282 33.655H72.67V36.0262V36.0294ZM72.67 40.677H74.8319C75.6757 40.677 76.2939 40.0752 76.2939 39.2968C76.2939 38.5184 75.6757 37.9656 74.8155 37.9656H72.67V40.6802V40.677Z" fill="#1E252B"/>
<path d="M80.127 42.8389L84.8072 31.5127H87.0345L91.7148 42.8389H89.0492L88.2872 40.9386H83.5578L82.7925 42.8389H80.127ZM84.2708 38.9403H87.5709L85.929 34.8291L84.2708 38.9403Z" fill="#1E252B"/>
<path d="M103.002 33.1714L101.311 34.6498C100.611 33.9498 99.718 33.6097 98.6126 33.6097C97.6052 33.6097 96.7614 33.9498 96.0615 34.6334C95.3616 35.317 95.0214 36.1608 95.0214 37.1845C95.0214 38.2082 95.3616 39.052 96.0451 39.7356C96.745 40.4028 97.5889 40.7429 98.6126 40.7429C99.6363 40.7429 100.431 40.4518 101.082 39.8664V38.339H98.1089V36.1281H103.424V40.7102C102.367 42.1231 100.581 43.016 98.6126 43.016C96.9053 43.016 95.476 42.4633 94.2888 41.3578C93.1016 40.236 92.5161 38.8558 92.5161 37.1812C92.5161 35.5067 93.1016 34.1265 94.2888 33.0046C95.476 31.8828 96.9053 31.3301 98.6126 31.3301C100.32 31.3301 101.814 31.9482 102.998 33.1649L103.002 33.1714Z" fill="#1E252B"/>
</svg>
