<svg width="234" height="151" viewBox="0 0 234 151" fill="none" xmlns="http://www.w3.org/2000/svg">
<path d="M99.7592 83.5265L77.4298 105.678C75.4178 102.913 74.2426 99.5128 74.2426 95.8504V58.2134L99.7592 83.5265Z" fill="#526D00"/>
<path d="M105.303 89.0327L129.208 112.747H91.268C88.413 112.747 85.718 112.045 83.3552 110.812L105.309 89.0327H105.303Z" fill="#9FC134"/>
<path d="M97.9256 29.8423L138.443 70.0308L117.855 90.4669L74.2426 47.2142V29.8423H97.9256Z" fill="#9FC134"/>
<path d="M160.49 29.8423V48.1664L143.993 64.5373L109.02 29.8423H160.49Z" fill="#79AA00"/>
<path d="M149.537 70.0372L160.49 59.166V80.9022L149.537 70.0372Z" fill="#526D00"/>
<path d="M143.993 75.5364L160.49 91.9011V95.8504C160.49 105.177 152.866 112.74 143.464 112.74H140.302L123.393 95.9664L143.993 75.5303V75.5364Z" fill="#79AA00"/>
<path d="M116.668 0C102.762 0 91.4588 11.0299 91.1511 24.7455H98.9962C99.2977 15.3393 107.112 7.77646 116.662 7.77646C126.211 7.77646 134.025 15.3332 134.327 24.7455H142.172C141.864 11.0299 130.561 0 116.655 0H116.668Z" fill="#526D00"/>
<path d="M0 150.695V131.296H8.24507C9.90024 131.296 11.3893 131.907 12.7614 133.103C14.1335 134.3 14.835 135.887 14.835 137.864C14.835 139.842 14.1643 141.313 12.8168 142.57C11.4693 143.828 9.95561 144.432 8.24507 144.432H4.31943V150.695H0ZM4.31943 140.538H7.99279C8.58349 140.538 9.17418 140.342 9.70334 139.927C10.2387 139.512 10.5155 138.816 10.5155 137.87C10.5155 136.924 10.2325 136.259 9.70334 135.838C9.16803 135.423 8.58349 135.197 7.99279 135.197H4.31943V140.538Z" fill="#1E252B"/>
<path d="M18.9637 150.695V131.296H23.2831V146.8H30.9129V150.695H18.9637Z" fill="#1E252B"/>
<path d="M33.2941 150.695L41.373 131.296H45.2187L53.2976 150.695H48.6951L47.3784 147.441H39.2133L37.8966 150.695H33.2941ZM40.4501 144.017H46.1478L43.3174 136.973L40.4562 144.017H40.4501Z" fill="#1E252B"/>
<path d="M57.0264 150.695V131.296H60.872L70.2431 143.346V131.296H74.421V150.695H70.8892L61.2104 138.31V150.695H57.0325H57.0264Z" fill="#1E252B"/>
<path d="M79.6388 150.695V131.296H92.9909V135.191H83.9582V138.835H92.4002V142.65H83.9582V146.794H93.1877V150.689H79.6388V150.695Z" fill="#1E252B"/>
<path d="M101.544 150.695V135.191H96.2397V131.296H111.081V135.191H105.863V150.695H101.544Z" fill="#1E252B"/>
<path d="M125.639 150.695V131.296H133.829C135.65 131.296 137.225 131.907 138.511 133.158C139.828 134.385 140.474 135.887 140.474 137.693C140.474 140.172 139.102 142.314 136.997 143.205L141.766 150.689H136.887L132.819 144.231H129.928V150.689H125.633L125.639 150.695ZM129.934 140.452H133.355C135.041 140.452 136.161 139.396 136.161 137.754C136.161 136.277 135.096 135.197 133.718 135.197H129.934V140.458V140.452Z" fill="#1E252B"/>
<path d="M145.446 150.695V131.296H158.798V135.191H149.765V138.835H158.207V142.65H149.765V146.794H158.994V150.689H145.446V150.695Z" fill="#1E252B"/>
<path d="M162.219 144.823V141.038H172.26V144.823H162.219Z" fill="#1E252B"/>
<path d="M176.666 150.695V131.296H184.437C186.006 131.296 187.329 131.772 188.394 132.719C189.489 133.634 190.018 134.831 190.018 136.253C190.018 138.115 189.095 139.592 187.52 140.147C190.018 140.593 191.446 142.485 191.446 144.963C191.446 146.605 190.886 147.997 189.735 149.083C188.615 150.17 187.212 150.695 185.502 150.695H176.666ZM180.899 139.036H183.73C184.966 139.036 185.834 138.176 185.834 136.979C185.834 135.783 184.966 134.977 183.76 134.977H180.899V139.042V139.036ZM180.899 146.996H184.628C186.086 146.996 187.151 145.964 187.151 144.627C187.151 143.291 186.086 142.345 184.597 142.345H180.893V146.99L180.899 146.996Z" fill="#1E252B"/>
<path d="M193.778 150.695L201.857 131.296H205.702L213.781 150.695H209.179L207.862 147.441H199.697L198.38 150.695H193.778ZM200.934 144.017H206.631L203.801 136.973L200.94 144.017H200.934Z" fill="#1E252B"/>
<path d="M233.274 134.135L230.357 136.668C229.151 135.471 227.607 134.885 225.7 134.885C223.958 134.885 222.5 135.471 221.294 136.637C220.088 137.809 219.497 139.256 219.497 141.008C219.497 142.759 220.088 144.206 221.263 145.378C222.469 146.519 223.927 147.105 225.693 147.105C227.459 147.105 228.838 146.605 229.957 145.604V142.985H224.826V139.201H234V147.051C232.179 149.474 229.09 151 225.693 151C222.746 151 220.279 150.054 218.23 148.161C216.181 146.239 215.172 143.876 215.172 141.008C215.172 138.139 216.181 135.776 218.23 133.854C220.279 131.931 222.746 130.985 225.693 130.985C228.641 130.985 231.219 132.041 233.268 134.128L233.274 134.135Z" fill="#1E252B"/>
</svg>
