<svg width="18" height="18" viewBox="0 0 18 18" fill="none" xmlns="http://www.w3.org/2000/svg">
<path d="M17.9996 17.3318C17.9996 17.6968 17.715 17.9995 17.3717 17.9995H0.627893C0.284645 17.9995 0 17.6968 0 17.3318C0 16.9579 0.284645 16.6641 0.627893 16.6641H17.3717C17.715 16.6641 17.9996 16.9579 17.9996 17.3318Z" fill="#7D8695"/>
<path opacity="0.4" d="M16.5332 6.63037V16.6639H1.42188L1.46374 6.62146C1.46374 6.07838 1.69815 5.56206 2.10837 5.22375L7.96871 0.380597C8.57148 -0.126866 9.42542 -0.126866 10.0282 0.380597L15.8885 5.22375C16.2988 5.56206 16.5332 6.07839 16.5332 6.63037Z" fill="#7D8695"/>
<path d="M10.2567 5.08934H7.74508C7.40183 5.08934 7.11719 4.78664 7.11719 4.42162C7.11719 4.0566 7.40183 3.75391 7.74508 3.75391H10.2567C10.5999 3.75391 10.8845 4.0566 10.8845 4.42162C10.8845 4.78664 10.5999 5.08934 10.2567 5.08934Z" fill="#7D8695"/>
<path d="M11.9325 7.53906H6.07219C5.37732 7.53906 4.81641 8.13555 4.81641 8.87449V17.3322H13.1883V8.87449C13.1883 8.13555 12.6274 7.53906 11.9325 7.53906ZM7.95587 13.5485C7.95587 13.9135 7.67123 14.2162 7.32798 14.2162C6.98473 14.2162 6.70009 13.9135 6.70009 13.5485V12.2131C6.70009 11.848 6.98473 11.5453 7.32798 11.5453C7.67123 11.5453 7.95587 11.848 7.95587 12.2131V13.5485Z" fill="#7D8695"/>
</svg>
