<svg width="18" height="18" viewBox="0 0 18 18" fill="none" xmlns="http://www.w3.org/2000/svg">
<path opacity="0.4" d="M0 9.83908V8.16092C0 7.16928 0.764618 6.34927 1.70915 6.34927C3.33733 6.34927 4.003 5.12879 3.18441 3.63179C2.71664 2.77364 2.9955 1.65804 3.81409 1.16222L5.37031 0.218258C6.08096 -0.229888 6.9985 0.0370925 7.42129 0.790358L7.52024 0.971523C8.32983 2.46852 9.66117 2.46852 10.4798 0.971523L10.5787 0.790358C11.0015 0.0370925 11.919 -0.229888 12.6297 0.218258L14.1859 1.16222C15.0045 1.65804 15.2834 2.77364 14.8156 3.63179C13.997 5.12879 14.6627 6.34927 16.2909 6.34927C17.2264 6.34927 18 7.15974 18 8.16092V9.83908C18 10.8307 17.2354 11.6507 16.2909 11.6507C14.6627 11.6507 13.997 12.8712 14.8156 14.3682C15.2834 15.2359 15.0045 16.342 14.1859 16.8378L12.6297 17.7817C11.919 18.2299 11.0015 17.9629 10.5787 17.2096L10.4798 17.0285C9.67016 15.5315 8.33883 15.5315 7.52024 17.0285L7.42129 17.2096C6.9985 17.9629 6.08096 18.2299 5.37031 17.7817L3.81409 16.8378C2.9955 16.342 2.71664 15.2264 3.18441 14.3682C4.003 12.8712 3.33733 11.6507 1.70915 11.6507C0.764618 11.6507 0 10.8307 0 9.83908Z" fill="#7D8695"/>
<path d="M8.99385 12.0981C10.6085 12.0981 11.9174 10.7107 11.9174 8.99927C11.9174 7.28781 10.6085 5.90039 8.99385 5.90039C7.37923 5.90039 6.07031 7.28781 6.07031 8.99927C6.07031 10.7107 7.37923 12.0981 8.99385 12.0981Z" fill="#7D8695"/>
</svg>
