<svg width="48" height="48" viewBox="0 0 48 48" fill="none" xmlns="http://www.w3.org/2000/svg">
<path opacity="0.4" d="M16.861 0C10.5859 0 5.48438 5.11203 5.48438 11.4001C5.48438 17.5681 10.2985 22.5601 16.5736 22.7761C16.7652 22.7521 16.9568 22.7521 17.1005 22.7761C17.1484 22.7761 17.1724 22.7761 17.2203 22.7761C17.2442 22.7761 17.2442 22.7761 17.2682 22.7761C23.3996 22.5601 28.2137 17.5681 28.2377 11.4001C28.2377 5.11203 23.1361 0 16.861 0Z" fill="#3486C1"/>
<path d="M29.0284 29.1595C22.3461 24.6955 11.4485 24.6955 4.71831 29.1595C1.67656 31.1996 0 33.9596 0 36.9116C0 39.8636 1.67656 42.5996 4.69436 44.6156C8.04748 46.8716 12.4544 47.9997 16.8614 47.9997C21.2683 47.9997 25.6753 46.8716 29.0284 44.6156C32.0462 42.5756 33.7228 39.8396 33.7228 36.8636C33.6988 33.9116 32.0462 31.1756 29.0284 29.1595Z" fill="#3486C1"/>
<path opacity="0.4" d="M43.1832 12.8159C43.5664 17.4719 40.2612 21.5519 35.6866 22.1039C35.6626 22.1039 35.6626 22.1039 35.6387 22.1039H35.5668C35.4231 22.1039 35.2794 22.1039 35.1597 22.1519C32.8364 22.2719 30.7048 21.5279 29.1001 20.1599C31.567 17.9519 32.9801 14.6399 32.6927 11.0399C32.5251 9.09587 31.8544 7.31986 30.8485 5.80785C31.7586 5.35185 32.8125 5.06385 33.8903 4.96785C38.5846 4.55985 42.776 8.06387 43.1832 12.8159Z" fill="#3486C1"/>
<path d="M47.9736 35.0172C47.782 37.3452 46.2971 39.3612 43.8062 40.7292C41.4111 42.0492 38.3933 42.6732 35.3995 42.6012C37.1239 41.0412 38.1299 39.0972 38.3215 37.0332C38.561 34.0572 37.1479 31.2012 34.3217 28.9212C32.717 27.6492 30.8488 26.6412 28.813 25.8972C34.1061 24.3611 40.7645 25.3931 44.86 28.7052C47.0635 30.4812 48.1892 32.7132 47.9736 35.0172Z" fill="#3486C1"/>
</svg>
