<svg width="48" height="48" viewBox="0 0 48 48" fill="none" xmlns="http://www.w3.org/2000/svg">
<path opacity="0.4" d="M24 48C37.2548 48 48 37.2548 48 24C48 10.7452 37.2548 0 24 0C10.7452 0 0 10.7452 0 24C0 37.2548 10.7452 48 24 48Z" fill="#81CFB0"/>
<path d="M29.4236 24.24L25.7996 22.968V14.832H26.6636C28.6076 14.832 30.1916 16.536 30.1916 18.624C30.1916 19.608 31.0076 20.424 31.9916 20.424C32.9756 20.424 33.7916 19.608 33.7916 18.624C33.7916 14.544 30.5996 11.232 26.6636 11.232H25.7996V9.84004C25.7996 8.85604 24.9836 8.04004 23.9996 8.04004C23.0156 8.04004 22.1996 8.85604 22.1996 9.84004V11.232H20.6396C17.0876 11.232 14.1836 14.232 14.1836 17.904C14.1836 22.2 16.6796 23.568 18.5756 24.24L22.1996 25.512V33.624H21.3356C19.3916 33.624 17.8076 31.92 17.8076 29.832C17.8076 28.848 16.9916 28.032 16.0076 28.032C15.0236 28.032 14.2076 28.848 14.2076 29.832C14.2076 33.912 17.3996 37.224 21.3356 37.224H22.1996V38.64C22.1996 39.624 23.0156 40.44 23.9996 40.44C24.9836 40.44 25.7996 39.624 25.7996 38.64V37.248H27.3596C30.9116 37.248 33.8156 34.248 33.8156 30.576C33.7916 26.256 31.2956 24.888 29.4236 24.24ZM19.7756 20.856C18.5516 20.424 17.8076 20.016 17.8076 17.928C17.8076 16.224 19.0796 14.856 20.6636 14.856H22.2236V21.72L19.7756 20.856ZM27.3596 33.648H25.7996V26.784L28.2236 27.624C29.4476 28.056 30.1916 28.464 30.1916 30.552C30.1916 32.256 28.9196 33.648 27.3596 33.648Z" fill="#81CFB0"/>
</svg>
