<svg width="48" height="48" viewBox="0 0 48 48" fill="none" xmlns="http://www.w3.org/2000/svg">
<path opacity="0.4" d="M45.6691 23.0345V36.6417C45.6691 42.9115 40.5023 48 34.1361 48H13.9764C7.61015 48 2.44336 42.9115 2.44336 36.6417V23.1935C4.19638 25.0563 6.68751 26.1239 9.38623 26.1239C12.2926 26.1239 15.0835 24.6928 16.8366 22.3984C18.4051 24.6928 21.0807 26.1239 24.0562 26.1239C27.0087 26.1239 29.6382 24.761 31.2298 22.4893C33.0058 24.7382 35.7507 26.1239 38.6109 26.1239C41.4019 26.1239 43.9392 25.0108 45.6691 23.0345Z" fill="#EB9B00"/>
<path d="M30.9537 0H17.1141L15.4072 16.7194C15.2688 18.2641 15.4995 19.7179 16.0762 21.0355C17.414 24.1249 20.551 26.124 24.057 26.124C27.6092 26.124 30.677 24.1704 32.0609 21.0582C32.4761 20.0814 32.7298 18.9456 32.7529 17.787V17.3554L30.9537 0Z" fill="#EB9B00"/>
<path opacity="0.6" d="M47.953 15.947L47.2841 9.65452C46.3153 2.79413 43.1553 0 36.3969 0H27.5396L29.2464 17.0374C29.2695 17.2646 29.2926 17.5144 29.2926 17.9461C29.431 19.1273 29.8 20.2177 30.3536 21.1945C32.0144 24.1931 35.2436 26.124 38.6112 26.124C41.679 26.124 44.447 24.7837 46.1769 22.4212C47.5609 20.6039 48.1837 18.3095 47.953 15.947Z" fill="#EB9B00"/>
<path opacity="0.6" d="M11.5776 0C4.79621 0 1.65923 2.79413 0.667387 9.72267L0.0446038 15.9697C-0.186056 18.4004 0.482859 20.7629 1.93602 22.6029C3.68904 24.8519 6.38776 26.124 9.38635 26.124C12.754 26.124 15.9832 24.1931 17.6209 21.2399C18.2206 20.2177 18.6128 19.0364 18.7281 17.8098L20.5272 0.0227165H11.5776V0Z" fill="#EB9B00"/>
<path d="M22.5578 35.0058C19.6284 35.3012 17.4141 37.7545 17.4141 40.6623V47.9997H30.677V41.4573C30.7001 36.7096 27.863 34.4606 22.5578 35.0058Z" fill="#EB9B00"/>
</svg>
