<svg width="42" height="48" viewBox="0 0 42 48" fill="none" xmlns="http://www.w3.org/2000/svg">
<path opacity="0.4" d="M30.9527 16.4677C30.0265 16.4677 29.2903 15.7238 29.2903 14.7879V11.7163C29.2903 9.36453 28.2929 7.10879 26.583 5.52498C24.8256 3.91716 22.5695 3.17325 20.1947 3.38922C16.2049 3.77318 12.7139 7.8767 12.7139 12.1482V14.3079C12.7139 15.2438 11.9777 15.9878 11.0515 15.9878C10.1254 15.9878 9.38916 15.2438 9.38916 14.3079V12.1482C9.38916 6.1489 14.1863 0.605549 19.8622 0.0536139C23.1632 -0.25835 26.3455 0.797527 28.7916 3.05326C31.2139 5.26101 32.5913 8.42864 32.5913 11.7163V14.7879C32.5913 15.7238 31.8551 16.4677 30.9527 16.4677Z" fill="#79AA00"/>
<path d="M39.9056 16.7081C37.9107 14.4764 34.6334 13.3965 29.8363 13.3965H12.1675C7.3703 13.3965 4.09302 14.4764 2.09816 16.7081C-0.205434 19.2998 -0.134188 22.7554 0.127044 25.1551L1.78943 38.5215C2.28815 43.201 4.16427 48.0004 14.3761 48.0004H27.6277C37.8395 48.0004 39.7156 43.201 40.2143 38.5455L41.8767 25.1311C42.1379 22.7554 42.1854 19.2998 39.9056 16.7081ZM12.4999 26.7629H12.4762C11.17 26.7629 10.1014 25.683 10.1014 24.3632C10.1014 23.0434 11.17 21.9635 12.4762 21.9635C13.8061 21.9635 14.8748 23.0434 14.8748 24.3632C14.8748 25.683 13.8061 26.7629 12.4999 26.7629ZM29.1238 26.7629H29.1001C27.7939 26.7629 26.7252 25.683 26.7252 24.3632C26.7252 23.0434 27.7939 21.9635 29.1001 21.9635C30.43 21.9635 31.4986 23.0434 31.4986 24.3632C31.4986 25.683 30.43 26.7629 29.1238 26.7629Z" fill="#79AA00"/>
</svg>
