<svg width="24" height="24" viewBox="0 0 24 24" fill="none" xmlns="http://www.w3.org/2000/svg">
<g clip-path="url(#clip0_217_1276)">
<path fill-rule="evenodd" clip-rule="evenodd" d="M5.3568 0.000488281H18.6432C21.6 0.000488281 24 2.40529 24 5.35729V18.6437C24 21.6005 21.6 24.0005 18.6432 24.0005H5.3568C2.4048 24.0005 0 21.6005 0 18.6437V5.35729C0 2.40529 2.4048 0.000488281 5.3568 0.000488281ZM4.224 12.0005C4.224 16.2869 7.7136 19.7765 12 19.7765C16.2864 19.7765 19.776 16.2869 19.776 12.0005C19.776 7.71409 16.2864 4.22929 12 4.22929C7.7136 4.22929 4.224 7.71409 4.224 12.0005ZM18.2928 3.99889C18.2928 4.90609 19.032 5.64049 19.9392 5.64049C20.8464 5.64049 21.5856 4.90609 21.5856 3.99889C21.5856 3.09169 20.8464 2.35249 19.9392 2.35249C19.032 2.35249 18.2928 3.09169 18.2928 3.99889ZM7.59822 12.0003C7.59822 9.57146 9.57102 7.59866 11.9998 7.59866C14.4286 7.59866 16.4062 9.57146 16.4062 12.0003C16.4062 14.4291 14.4286 16.4067 11.9998 16.4067C9.57102 16.4067 7.59822 14.4291 7.59822 12.0003Z" fill="#79AA00"/>
</g>
<defs>
<clipPath id="clip0_217_1276">
<rect width="24" height="24" fill="white" transform="translate(0 0.000488281)"/>
</clipPath>
</defs>
</svg>
