<svg width="24" height="24" viewBox="0 0 24 24" fill="none" xmlns="http://www.w3.org/2000/svg">
<circle cx="12" cy="12.0005" r="12" fill="#79AA00"/>
<path d="M11.9325 10.5605C12.3225 10.5605 12.66 10.703 12.945 10.988C13.23 11.258 13.3725 11.5955 13.3725 12.0005C13.3725 12.3905 13.23 12.728 12.945 13.013C12.66 13.298 12.3225 13.4405 11.9325 13.4405C11.5275 13.4405 11.1825 13.298 10.8975 13.013C10.6125 12.728 10.47 12.3905 10.47 12.0005C10.47 11.5955 10.6125 11.258 10.8975 10.988C11.1825 10.703 11.5275 10.5605 11.9325 10.5605ZM13.4175 14.6105C13.4175 14.9555 13.485 15.263 13.62 15.533C13.755 15.803 13.9275 16.028 14.1375 16.208C14.3625 16.388 14.6025 16.5305 14.8575 16.6355C15.1275 16.7255 15.39 16.7705 15.645 16.7705C16.23 16.7705 16.7175 16.598 17.1075 16.253C17.5125 15.908 17.835 15.488 18.075 14.993C18.315 14.498 18.4875 13.9805 18.5925 13.4405C18.6975 12.8855 18.75 12.4055 18.75 12.0005C18.75 11.0705 18.57 10.193 18.21 9.36799C17.865 8.54299 17.385 7.83049 16.77 7.23049C16.155 6.61549 15.435 6.13549 14.61 5.79049C13.8 5.43049 12.93 5.25049 12 5.25049C11.07 5.25049 10.1925 5.43049 9.3675 5.79049C8.5425 6.13549 7.8225 6.61549 7.2075 7.23049C6.6075 7.83049 6.1275 8.54299 5.7675 9.36799C5.4225 10.193 5.25 11.0705 5.25 12.0005C5.25 12.9305 5.4225 13.808 5.7675 14.633C6.1275 15.443 6.615 16.1555 7.23 16.7705C7.845 17.3855 8.5575 17.873 9.3675 18.233C10.1925 18.578 11.07 18.7505 12 18.7505C12.24 18.7505 12.4425 18.668 12.6075 18.503C12.7875 18.323 12.8775 18.113 12.8775 17.873C12.8775 17.633 12.7875 17.4305 12.6075 17.2655C12.4425 17.0855 12.24 16.9955 12 16.9955C11.31 16.9955 10.6575 16.868 10.0425 16.613C9.4425 16.343 8.91 15.983 8.445 15.533C7.995 15.083 7.635 14.558 7.365 13.958C7.11 13.343 6.9825 12.6905 6.9825 12.0005C6.9825 11.3105 7.11 10.6655 7.365 10.0655C7.635 9.45049 7.995 8.91799 8.445 8.46799C8.91 8.00299 9.4425 7.64299 10.0425 7.38799C10.6575 7.11799 11.31 6.98299 12 6.98299C12.69 6.98299 13.335 7.11799 13.935 7.38799C14.55 7.64299 15.0825 7.99549 15.5325 8.44549C15.9825 8.89549 16.335 9.42799 16.59 10.043C16.86 10.658 16.995 11.3105 16.995 12.0005C16.995 12.4055 16.95 12.7955 16.86 13.1705C16.77 13.5305 16.6575 13.853 16.5225 14.138C16.4025 14.408 16.2675 14.633 16.1175 14.813C15.9675 14.978 15.825 15.0605 15.69 15.0605C15.45 15.0605 15.2925 14.9855 15.2175 14.8355C15.1575 14.6855 15.1275 14.573 15.1275 14.498V9.72799C15.1275 9.47299 15.0375 9.26299 14.8575 9.09799C14.6925 8.93299 14.49 8.85049 14.25 8.85049C14.04 8.85049 13.8525 8.91799 13.6875 9.05299C13.5375 9.18799 13.4475 9.33049 13.4175 9.48049C13.4025 9.46549 13.35 9.42799 13.26 9.36799C13.185 9.29299 13.0725 9.21799 12.9225 9.14299C12.7725 9.06799 12.5925 9.00049 12.3825 8.94049C12.1725 8.88049 11.925 8.85049 11.64 8.85049C11.295 8.85049 10.95 8.93299 10.605 9.09799C10.26 9.24799 9.945 9.46549 9.66 9.75049C9.39 10.0205 9.165 10.3505 8.985 10.7405C8.82 11.1305 8.7375 11.5505 8.7375 12.0005C8.7375 12.4505 8.82 12.8705 8.985 13.2605C9.165 13.6505 9.39 13.988 9.66 14.273C9.945 14.543 10.26 14.7605 10.605 14.9255C10.95 15.0755 11.295 15.1505 11.64 15.1505C11.925 15.1505 12.1725 15.1205 12.3825 15.0605C12.5925 15.0005 12.7725 14.933 12.9225 14.858C13.0725 14.768 13.185 14.693 13.26 14.633C13.35 14.558 13.4025 14.513 13.4175 14.498V14.6105Z" fill="white" stroke="#79AA00" stroke-width="0.5"/>
</svg>
