<svg width="25" height="24" viewBox="0 0 25 24" fill="none" xmlns="http://www.w3.org/2000/svg">
<path d="M5.93526 22.356C7.72322 23.4 9.79917 24 12.0071 24C18.763 24 24.3788 18.0361 23.9828 11.2923C23.5748 4.33245 17.251 -1.03144 9.96715 0.168536C4.95126 0.996517 0.931362 5.06443 0.151379 10.0803C-0.304611 12.9843 0.295402 15.7322 1.60337 18.0001L0.535379 21.972C0.295385 22.872 1.12334 23.688 2.01132 23.436L5.93526 22.356Z" fill="#79AA00"/>
<path d="M18.0069 15.8043C18.0069 16.0203 17.9589 16.2483 17.8509 16.4643C17.7429 16.6803 17.611 16.8843 17.443 17.0763C17.143 17.4003 16.819 17.6403 16.459 17.7843C16.099 17.9403 15.703 18.0123 15.283 18.0123C14.671 18.0123 14.011 17.8683 13.327 17.5683C12.631 17.2683 11.9471 16.8723 11.2631 16.3803C10.5671 15.8763 9.9191 15.3123 9.29512 14.7004C8.67113 14.0764 8.11919 13.4164 7.6152 12.7324C7.12321 12.0484 6.72717 11.3644 6.43917 10.6805C6.15118 9.99647 6.0072 9.33649 6.0072 8.7125C6.0072 8.30451 6.07919 7.90852 6.22319 7.54852C6.36719 7.17653 6.5952 6.84054 6.91919 6.54054C7.30318 6.15655 7.72315 5.97656 8.16714 5.97656C8.33513 5.97656 8.50317 6.01256 8.65917 6.08456C8.81517 6.15655 8.95912 6.26455 9.06712 6.42055L10.4471 8.4005C10.5551 8.5565 10.6391 8.6885 10.6871 8.82049C10.7471 8.95249 10.7711 9.07249 10.7711 9.19249C10.7711 9.33649 10.7231 9.48048 10.6391 9.62447C10.5551 9.76847 10.4471 9.91247 10.3031 10.0565L9.84713 10.5365C9.77513 10.6085 9.75111 10.6805 9.75111 10.7765C9.75111 10.8245 9.76314 10.8724 9.77513 10.9204C9.79913 10.9684 9.81111 11.0044 9.82311 11.0404C9.93111 11.2444 10.1231 11.4964 10.3871 11.8084C10.6631 12.1204 10.9511 12.4444 11.2631 12.7564C11.5871 13.0804 11.8991 13.3684 12.2231 13.6444C12.535 13.9084 12.7991 14.0884 13.0031 14.1964C13.0391 14.2084 13.075 14.2324 13.111 14.2444C13.159 14.2684 13.207 14.2684 13.267 14.2684C13.375 14.2684 13.447 14.2324 13.519 14.1604L13.975 13.7044C14.131 13.5484 14.275 13.4404 14.407 13.3684C14.551 13.2844 14.683 13.2364 14.839 13.2364C14.959 13.2364 15.079 13.2604 15.211 13.3204C15.343 13.3804 15.487 13.4524 15.631 13.5604L17.6229 14.9764C17.7789 15.0844 17.887 15.2164 17.959 15.3603C17.971 15.4923 18.0069 15.6363 18.0069 15.8043Z" fill="white"/>
</svg>
